<svg xmlns="http://www.w3.org/2000/svg" viewBox="0 0 960 740" width="960" height="740" font-family="Inter, system-ui, -apple-system, Helvetica, Arial, sans-serif">
  <title>Bridge — Keys (redesign v2)</title>

  <defs>
    <linearGradient id="appBg" x1="0" y1="0" x2="0" y2="1">
      <stop offset="0" stop-color="#1A1526"/>
      <stop offset="1" stop-color="#120F1C"/>
    </linearGradient>
    <linearGradient id="cardBg" x1="0" y1="0" x2="0" y2="1">
      <stop offset="0" stop-color="#231E33"/>
      <stop offset="1" stop-color="#1A1526"/>
    </linearGradient>
    <radialGradient id="knobFace" cx="0.5" cy="0.4" r="0.7">
      <stop offset="0" stop-color="#2A2438"/>
      <stop offset="1" stop-color="#15111F"/>
    </radialGradient>
    <filter id="softShadow" x="-20%" y="-20%" width="140%" height="140%">
      <feGaussianBlur in="SourceAlpha" stdDeviation="3"/>
      <feOffset dx="0" dy="2"/>
      <feComponentTransfer><feFuncA type="linear" slope="0.5"/></feComponentTransfer>
      <feMerge><feMergeNode/><feMergeNode in="SourceGraphic"/></feMerge>
    </filter>

    <symbol id="knob" viewBox="0 0 72 72" overflow="visible">
      <circle cx="36" cy="36" r="30" fill="none" stroke="#2E2940" stroke-width="5"/>
      <path d="M 14.75 54.25 A 30 30 0 1 1 57.25 54.25" fill="none" stroke="currentColor" stroke-width="5" stroke-linecap="round"/>
      <circle cx="36" cy="36" r="23" fill="url(#knobFace)" stroke="#3A3550"/>
      <line x1="36" y1="36" x2="36" y2="18" stroke="currentColor" stroke-width="2.5" stroke-linecap="round"/>
      <circle cx="36" cy="36" r="2" fill="currentColor"/>
    </symbol>
  </defs>

  <rect width="960" height="740" fill="url(#appBg)"/>

  <!-- ═══ TAB STRIP (power dots removed) ═══ -->
  <g>
    <rect width="960" height="52" fill="#15111E"/>
    <line x1="0" y1="51.5" x2="960" y2="51.5" stroke="#2E2940"/>
    <g font-size="12" font-weight="700" letter-spacing="2" text-anchor="middle">
      <g transform="translate(12,8)">
        <rect width="168" height="36" rx="10" fill="#1B1628" stroke="#2E2940"/>
        <text x="84" y="23" fill="#948CA8">LEADER</text>
      </g>
      <g transform="translate(196,8)">
        <rect width="168" height="36" rx="10" fill="#1B1628" stroke="#2E2940"/>
        <text x="84" y="23" fill="#948CA8">DRUMS</text>
      </g>
      <g transform="translate(380,8)">
        <rect width="168" height="36" rx="10" fill="#1B1628" stroke="#2E2940"/>
        <text x="84" y="23" fill="#948CA8">BASS</text>
      </g>
      <g transform="translate(564,8)">
        <rect width="168" height="36" rx="10" fill="#201838" stroke="#B88CFF" stroke-opacity="0.85"/>
        <rect y="33" width="168" height="3" rx="1.5" fill="#B88CFF"/>
        <text x="84" y="23" fill="#EADFFF">KEYS</text>
      </g>
      <g transform="translate(748,8)">
        <rect width="168" height="36" rx="10" fill="#1B1628" stroke="#2E2940"/>
        <text x="84" y="23" fill="#948CA8">GUITAR</text>
      </g>
    </g>
  </g>

  <!-- ═══ PAGE TITLE ROW ═══ -->
  <g transform="translate(24,76)">
    <g>
      <rect width="44" height="22" rx="11" fill="#1F3A26" stroke="#4CAF50" stroke-opacity="0.6"/>
      <circle cx="33" cy="11" r="8" fill="#4CAF50"/>
    </g>
    <rect x="60" y="-3" width="4" height="28" fill="#B88CFF"/>
    <text x="72" y="19" fill="#EADFFF" font-size="22" font-weight="700" letter-spacing="3">KEYS</text>
  </g>

  <!-- ═══ DROPDOWN ROW ═══ -->
  <g transform="translate(24,112)">
    <g font-size="12" fill="#C4B8DC">
      <g transform="translate(0,0)">
        <text x="0" y="16" fill="#948CA8">Root</text>
        <rect x="40" y="2" width="60" height="22" rx="6" fill="#15111E" stroke="#3A3550"/>
        <text x="50" y="17" fill="#EADFFF">A</text>
        <path d="M 90 12 l 4 5 l 4 -5 z" fill="#948CA8"/>
      </g>
      <g transform="translate(116,0)">
        <text x="0" y="16" fill="#948CA8">Scale</text>
        <rect x="46" y="2" width="108" height="22" rx="6" fill="#15111E" stroke="#3A3550"/>
        <text x="56" y="17" fill="#EADFFF">Mixolydian</text>
        <path d="M 144 12 l 4 5 l 4 -5 z" fill="#948CA8"/>
      </g>
      <g transform="translate(284,0)">
        <text x="0" y="16" fill="#948CA8">Oct</text>
        <rect x="36" y="2" width="52" height="22" rx="6" fill="#15111E" stroke="#3A3550"/>
        <text x="46" y="17" fill="#EADFFF">3</text>
        <path d="M 78 12 l 4 5 l 4 -5 z" fill="#948CA8"/>
      </g>
    </g>
    <text x="912" y="19" text-anchor="end" fill="#6A5F80" font-size="11" letter-spacing="1.6">1 OCTAVE · 16 STEPS · CHORDAL VOICINGS</text>
  </g>

  <!-- ═══ GRID CARD ═══ -->
  <g transform="translate(24,150)" filter="url(#softShadow)">
    <rect width="912" height="306" rx="14" fill="url(#cardBg)" stroke="#2E2940"/>

    <g transform="translate(16,12)">
      <g font-size="9" fill="#6A5F80" text-anchor="middle">
        <text x="96" y="12">1</text><text x="136" y="12">2</text><text x="176" y="12">3</text><text x="216" y="12">4</text>
        <text x="256" y="12">5</text><text x="296" y="12">6</text><text x="336" y="12">7</text><text x="376" y="12">8</text>
        <text x="416" y="12">9</text><text x="456" y="12">10</text><text x="496" y="12">11</text><text x="536" y="12">12</text>
        <text x="576" y="12">13</text><text x="616" y="12">14</text><text x="656" y="12">15</text><text x="696" y="12">16</text>
      </g>
      <text x="38" y="12" fill="#948CA8" font-size="10" text-anchor="middle" font-weight="600">Pitch</text>

      <g transform="translate(0,24)">
        <g font-size="8" fill="#948CA8">
          <rect x="0" y="0"   width="76" height="22" fill="#15111E" stroke="#2E2940"/><text x="72" y="14"  text-anchor="end">A5</text>
          <rect x="0" y="22"  width="76" height="22" fill="#201838" stroke="#2E2940"/><text x="72" y="36"  text-anchor="end">G#5</text>
          <rect x="0" y="44"  width="76" height="22" fill="#15111E" stroke="#2E2940"/><text x="72" y="58"  text-anchor="end">G5</text>
          <rect x="0" y="66"  width="76" height="22" fill="#201838" stroke="#2E2940"/><text x="72" y="80"  text-anchor="end">F#5</text>
          <rect x="0" y="88"  width="76" height="22" fill="#15111E" stroke="#2E2940"/><text x="72" y="102" text-anchor="end">F5</text>
          <rect x="0" y="110" width="76" height="22" fill="#15111E" stroke="#2E2940"/><text x="72" y="124" text-anchor="end">E5</text>
          <rect x="0" y="132" width="76" height="22" fill="#201838" stroke="#2E2940"/><text x="72" y="146" text-anchor="end">D#5</text>
          <rect x="0" y="154" width="76" height="22" fill="#15111E" stroke="#2E2940"/><text x="72" y="168" text-anchor="end">D5</text>
          <rect x="0" y="176" width="76" height="22" fill="#201838" stroke="#2E2940"/><text x="72" y="190" text-anchor="end">C#5</text>
          <rect x="0" y="198" width="76" height="22" fill="#15111E" stroke="#2E2940"/><text x="72" y="212" text-anchor="end">C5</text>
          <rect x="0" y="220" width="76" height="22" fill="#201838" stroke="#2E2940"/><text x="72" y="234" text-anchor="end">A#4</text>
          <rect x="0" y="242" width="76" height="22" fill="#15111E" stroke="#2E2940"/><text x="72" y="256" text-anchor="end">A4</text>
        </g>

        <g>
          <rect x="80" y="0" width="780" height="264" fill="#15111E"/>
          <g stroke="#2E2940" stroke-width="0.5">
            <line x1="80" y1="22"  x2="860" y2="22"/>
            <line x1="80" y1="44"  x2="860" y2="44"/>
            <line x1="80" y1="66"  x2="860" y2="66"/>
            <line x1="80" y1="88"  x2="860" y2="88"/>
            <line x1="80" y1="110" x2="860" y2="110"/>
            <line x1="80" y1="132" x2="860" y2="132"/>
            <line x1="80" y1="154" x2="860" y2="154"/>
            <line x1="80" y1="176" x2="860" y2="176"/>
            <line x1="80" y1="198" x2="860" y2="198"/>
            <line x1="80" y1="220" x2="860" y2="220"/>
            <line x1="80" y1="242" x2="860" y2="242"/>
          </g>
          <g stroke="#3A3550" stroke-width="0.6">
            <line x1="240" y1="0" x2="240" y2="264"/>
            <line x1="400" y1="0" x2="400" y2="264"/>
            <line x1="560" y1="0" x2="560" y2="264"/>
          </g>

          <!-- chordal stack: voicings on beats -->
          <g fill="#B88CFF">
            <circle cx="96"  cy="232" r="7"/>
            <circle cx="96"  cy="166" r="7"/>
            <circle cx="96"  cy="100" r="7"/>
            <circle cx="256" cy="210" r="7"/>
            <circle cx="256" cy="144" r="7"/>
            <circle cx="256" cy="78"  r="7"/>
            <circle cx="416" cy="232" r="7"/>
            <circle cx="416" cy="166" r="7"/>
            <circle cx="416" cy="100" r="7"/>
            <circle cx="576" cy="188" r="7"/>
            <circle cx="576" cy="122" r="7"/>
            <circle cx="576" cy="56"  r="7"/>
          </g>
          <g fill="#B88CFF" opacity="0.6">
            <circle cx="176" cy="188" r="5"/>
            <circle cx="336" cy="166" r="5"/>
            <circle cx="496" cy="188" r="5"/>
            <circle cx="656" cy="144" r="5"/>
          </g>

          <g fill="none" stroke="#B88CFF" stroke-width="2.5" stroke-linecap="round">
            <path d="M 82 0 L 78 0 L 78 264 L 82 264"/>
            <path d="M 558 0 L 562 0 L 562 264 L 558 264"/>
          </g>
          <g font-size="8" fill="#B88CFF" letter-spacing="1">
            <text x="78" y="-4">START · 1</text>
            <text x="562" y="-4" text-anchor="end">END · 12</text>
          </g>
        </g>
      </g>
    </g>
  </g>

  <!-- ═══ BOTTOM HALF ═══ -->
  <g transform="translate(24,478)">
    <g font-size="10" fill="#C4B8DC" text-anchor="middle" letter-spacing="0.8">
      <g transform="translate(0,0)"   color="#B88CFF"><use href="#knob" width="58" height="58" x="0" y="0"/><text x="29" y="72">DENSITY</text></g>
      <g transform="translate(60,0)"  color="#B88CFF"><use href="#knob" width="58" height="58" x="0" y="0"/><text x="29" y="72">SWING</text></g>
      <g transform="translate(120,0)" color="#B88CFF"><use href="#knob" width="58" height="58" x="0" y="0"/><text x="29" y="72">HUMANIZE</text></g>
      <g transform="translate(180,0)" color="#B88CFF"><use href="#knob" width="58" height="58" x="0" y="0"/><text x="29" y="72">POCKET</text></g>
      <g transform="translate(240,0)" color="#B88CFF"><use href="#knob" width="58" height="58" x="0" y="0"/><text x="29" y="72">VELOCITY</text></g>
      <g transform="translate(300,0)" color="#B88CFF"><use href="#knob" width="58" height="58" x="0" y="0"/><text x="29" y="72">FILL RATE</text></g>
      <g transform="translate(360,0)" color="#B88CFF"><use href="#knob" width="58" height="58" x="0" y="0"/><text x="29" y="72">COMPLEX</text></g>
      <g transform="translate(420,0)" color="#B88CFF"><use href="#knob" width="58" height="58" x="0" y="0"/><text x="29" y="72">GHOST</text></g>
      <g transform="translate(480,0)" color="#B88CFF"><use href="#knob" width="58" height="58" x="0" y="0"/><text x="29" y="72">STACCATO</text></g>
    </g>

    <g transform="translate(548,0)" filter="url(#softShadow)">
      <rect width="364" height="108" rx="12" fill="url(#cardBg)" stroke="#2E2940"/>

      <g transform="translate(16,12)" font-size="9" fill="#948CA8" letter-spacing="0.8">
        <text x="0" y="8">LOOP START</text>
        <rect x="0" y="12" width="86" height="18" rx="9" fill="#15111E" stroke="#3A3550"/>
        <line x1="6" y1="21" x2="80" y2="21" stroke="#2E2940"/>
        <line x1="6" y1="21" x2="10" y2="21" stroke="#B88CFF" stroke-width="2"/>
        <circle cx="10" cy="21" r="5" fill="#B88CFF"/>
        <g transform="translate(92,12)">
          <rect width="22" height="18" rx="6" fill="#201838" stroke="#B88CFF" stroke-opacity="0.6"/>
          <text x="11" y="12" fill="#B88CFF" text-anchor="middle" font-size="10">L</text>
        </g>

        <text x="128" y="8">LOOP END</text>
        <rect x="128" y="12" width="86" height="18" rx="9" fill="#15111E" stroke="#3A3550"/>
        <line x1="134" y1="21" x2="208" y2="21" stroke="#2E2940"/>
        <line x1="134" y1="21" x2="190" y2="21" stroke="#B88CFF" stroke-width="2"/>
        <circle cx="190" cy="21" r="5" fill="#B88CFF"/>
        <g transform="translate(220,12)">
          <rect width="22" height="18" rx="6" fill="#201838" stroke="#B88CFF" stroke-opacity="0.6"/>
          <text x="11" y="12" fill="#B88CFF" text-anchor="middle" font-size="10">L</text>
        </g>

        <text x="256" y="8">SPEED</text>
        <g transform="translate(256,12)" font-size="9" font-weight="600">
          <rect width="24" height="18" rx="5" fill="#15111E" stroke="#3A3550"/>
          <text x="12" y="12" fill="#948CA8" text-anchor="middle">x2</text>
          <rect x="28" width="24" height="18" rx="5" fill="#B88CFF" fill-opacity="0.35" stroke="#B88CFF" stroke-opacity="0.5"/>
          <text x="40" y="12" fill="#EADFFF" text-anchor="middle">1</text>
          <rect x="56" width="24" height="18" rx="5" fill="#15111E" stroke="#3A3550"/>
          <text x="68" y="12" fill="#948CA8" text-anchor="middle">1/2</text>
        </g>
      </g>

      <g transform="translate(16,52)" font-size="10">
        <text fill="#948CA8" y="4" letter-spacing="0.8">STYLE</text>
        <rect x="36" y="-6" width="312" height="22" rx="7" fill="#15111E" stroke="#3A3550"/>
        <text x="46" y="9" fill="#EADFFF">Neo-Soul</text>
        <path d="M 332 2 l 5 7 l 5 -7 z" fill="#948CA8"/>
      </g>

      <g transform="translate(16,80)" font-size="10" font-weight="700" letter-spacing="1.2">
        <rect width="108" height="20" rx="6" fill="#B88CFF"/>
        <text x="54" y="14" fill="#1A0E2E" text-anchor="middle">GEN</text>
        <rect x="120" width="108" height="20" rx="6" fill="#201838" stroke="#3A3550"/>
        <text x="174" y="14" fill="#B88CFF" text-anchor="middle">FILL</text>
        <rect x="240" width="108" height="20" rx="6" fill="#201838" stroke="#3A3550"/>
        <text x="294" y="14" fill="#B88CFF" text-anchor="middle">PERF</text>
      </g>
    </g>
  </g>

  <g transform="translate(24,722)" font-size="9" fill="#6A5F80">
    <text>v2 · Piano sidebar + note grid · in-grid loop brackets · top-padded title + on/off toggle · shared bottom half · matches Bootsy/Paul structure</text>
  </g>
</svg>
